<?xml version="1.0" encoding="UTF-8"?><svg id="Layer_1" xmlns="http://www.w3.org/2000/svg" viewBox="0 0 168.57 76.8"><defs><style>.cls-1{fill:#06c;}</style></defs><path class="cls-1" d="M26.01,58.71l9.18-40.8h15.72l9.18,40.8h-8.28l-1.62-7.38h-14.28l-1.62,7.38h-8.28Zm15.6-33.96l-4.14,19.38h11.16l-4.14-19.38h-2.88Z"/><path class="cls-1" d="M66.99,58.71V17.91h13.98l9.84,33.6h.6V17.91h8.28V58.71h-13.62l-10.2-33.6h-.6V58.71h-8.28Z"/><path class="cls-1" d="M110.01,58.71V17.91h8.28V58.71h-8.28Z"/><path class="cls-1" d="M141.15,24.39c-4.36,0-6.54,1.44-6.54,4.32,0,1.28,.54,2.26,1.62,2.94,1.08,.68,3.61,1.66,7.59,2.94,3.98,1.28,6.77,2.73,8.37,4.35,1.6,1.62,2.4,4.11,2.4,7.47,0,4.28-1.3,7.52-3.9,9.72-2.6,2.2-6,3.3-10.2,3.3-3.12,0-6.94-.48-11.46-1.44l-2.16-.42,.84-6.42c5.36,.72,9.46,1.08,12.3,1.08,4.24,0,6.36-1.76,6.36-5.28,0-1.28-.49-2.28-1.47-3-.98-.72-2.93-1.5-5.85-2.34-4.64-1.32-7.91-2.89-9.81-4.71-1.9-1.82-2.85-4.35-2.85-7.59,0-4.08,1.24-7.12,3.72-9.12,2.48-2,5.88-3,10.2-3,2.96,0,6.72,.4,11.28,1.2l2.16,.42-.66,6.54c-5.64-.64-9.62-.96-11.94-.96Z"/><path class="cls-1" d="M17.98,27.98c-1.41,0-2.57,.46-3.47,1.4-.9,.94-1.36,2.11-1.36,3.52s.46,2.59,1.37,3.54c.91,.95,2.07,1.43,3.47,1.43s2.54-.47,3.43-1.4c.88-.94,1.32-2.1,1.32-3.51s-.44-2.59-1.32-3.54c-.88-.96-2.03-1.44-3.44-1.44Z"/></svg>